<mxfile host="app.diagrams.net" modified="2024-04-19T09:08:21.825Z" agent="Mozilla/5.0 (Windows NT 10.0; Win64; x64) AppleWebKit/537.36 (KHTML, like Gecko) Chrome/123.0.0.0 Safari/537.36" etag="gUXXy9h7PEO2eM_E7Dq-" version="24.2.5" type="device">
  <diagram name="Page-1" id="75lhfm0wC-_H9Pz86SWd">
    <mxGraphModel dx="480" dy="770" grid="1" gridSize="10" guides="1" tooltips="1" connect="1" arrows="1" fold="1" page="1" pageScale="1" pageWidth="850" pageHeight="1100" math="0" shadow="0">
      <root>
        <mxCell id="0" />
        <mxCell id="1" parent="0" />
        <mxCell id="2" value="CollectorApp " style="swimlane;fontStyle=1;align=center;verticalAlign=top;childLayout=stackLayout;horizontal=1;startSize=28.4;horizontalStack=0;resizeParent=1;resizeParentMax=0;resizeLast=0;collapsible=0;marginBottom=0;" parent="1" vertex="1">
          <mxGeometry x="240" y="260" width="350" height="200" as="geometry" />
        </mxCell>
        <mxCell id="3" value=" - inventory: List[Product]" style="text;strokeColor=none;fillColor=none;align=left;verticalAlign=top;spacingLeft=4;spacingRight=4;overflow=hidden;rotatable=0;points=[[0,0.5],[1,0.5]];portConstraint=eastwest;" parent="2" vertex="1">
          <mxGeometry y="28.4" width="350" height="28" as="geometry" />
        </mxCell>
        <mxCell id="4" style="line;strokeWidth=1;fillColor=none;align=left;verticalAlign=middle;spacingTop=-1;spacingLeft=3;spacingRight=3;rotatable=0;labelPosition=right;points=[];portConstraint=eastwest;strokeColor=inherit;" parent="2" vertex="1">
          <mxGeometry y="56.4" width="350" height="8" as="geometry" />
        </mxCell>
        <mxCell id="5" value="+ add_produkt(produkt: produkt):&#xa;| + remove_produkt(produkt: produkt): &#xa;| + get_produkt_by_kategori(category: str) -&gt; List[Product]|&#xa;| + get_produkt_by_produsent/(profusent: str) -&gt; List[produkt]|&#xa;| + lagre_til_fil(filename: str): &#xa;| + laste_fra_fil(filename: str): &#xa;" style="text;strokeColor=none;fillColor=none;align=left;verticalAlign=top;spacingLeft=4;spacingRight=4;overflow=hidden;rotatable=0;points=[[0,0.5],[1,0.5]];portConstraint=eastwest;" parent="2" vertex="1">
          <mxGeometry y="64.4" width="350" height="135.6" as="geometry" />
        </mxCell>
        <mxCell id="n8cTAwx9QXqqAEab48c7-7" value="" style="endArrow=none;html=1;rounded=0;entryX=0.469;entryY=1.052;entryDx=0;entryDy=0;entryPerimeter=0;" edge="1" parent="1" target="5">
          <mxGeometry width="50" height="50" relative="1" as="geometry">
            <mxPoint x="404" y="670" as="sourcePoint" />
            <mxPoint x="440" y="400" as="targetPoint" />
          </mxGeometry>
        </mxCell>
        <mxCell id="n8cTAwx9QXqqAEab48c7-8" value="Product" style="swimlane;fontStyle=1;align=center;verticalAlign=top;childLayout=stackLayout;horizontal=1;startSize=28.4;horizontalStack=0;resizeParent=1;resizeParentMax=0;resizeLast=0;collapsible=0;marginBottom=0;" vertex="1" parent="1">
          <mxGeometry x="230" y="670" width="350" height="122" as="geometry" />
        </mxCell>
        <mxCell id="n8cTAwx9QXqqAEab48c7-10" style="line;strokeWidth=1;fillColor=none;align=left;verticalAlign=middle;spacingTop=-1;spacingLeft=3;spacingRight=3;rotatable=0;labelPosition=right;points=[];portConstraint=eastwest;strokeColor=inherit;" vertex="1" parent="n8cTAwx9QXqqAEab48c7-8">
          <mxGeometry y="28.4" width="350" height="8" as="geometry" />
        </mxCell>
        <mxCell id="n8cTAwx9QXqqAEab48c7-11" value="- navn: str&#xa;- kjøpe_pris: float&#xa;- verdi: float&#xa;&#xa;- kategori: str&#xa;" style="text;strokeColor=none;fillColor=none;align=left;verticalAlign=top;spacingLeft=4;spacingRight=4;overflow=hidden;rotatable=0;points=[[0,0.5],[1,0.5]];portConstraint=eastwest;" vertex="1" parent="n8cTAwx9QXqqAEab48c7-8">
          <mxGeometry y="36.4" width="350" height="85.6" as="geometry" />
        </mxCell>
        <mxCell id="n8cTAwx9QXqqAEab48c7-12" value="" style="endArrow=none;html=1;rounded=0;entryX=0.146;entryY=1.07;entryDx=0;entryDy=0;entryPerimeter=0;" edge="1" parent="1" target="n8cTAwx9QXqqAEab48c7-11">
          <mxGeometry width="50" height="50" relative="1" as="geometry">
            <mxPoint x="230" y="980" as="sourcePoint" />
            <mxPoint x="430" y="910" as="targetPoint" />
          </mxGeometry>
        </mxCell>
        <mxCell id="n8cTAwx9QXqqAEab48c7-13" value="" style="endArrow=none;html=1;rounded=0;" edge="1" parent="1" target="n8cTAwx9QXqqAEab48c7-11">
          <mxGeometry width="50" height="50" relative="1" as="geometry">
            <mxPoint x="490" y="970" as="sourcePoint" />
            <mxPoint x="430" y="910" as="targetPoint" />
          </mxGeometry>
        </mxCell>
        <mxCell id="n8cTAwx9QXqqAEab48c7-14" value="fysisk produkt" style="swimlane;fontStyle=1;align=center;verticalAlign=top;childLayout=stackLayout;horizontal=1;startSize=28.4;horizontalStack=0;resizeParent=1;resizeParentMax=0;resizeLast=0;collapsible=0;marginBottom=0;" vertex="1" parent="1">
          <mxGeometry x="130" y="990" width="190" height="90" as="geometry" />
        </mxCell>
        <mxCell id="n8cTAwx9QXqqAEab48c7-15" style="line;strokeWidth=1;fillColor=none;align=left;verticalAlign=middle;spacingTop=-1;spacingLeft=3;spacingRight=3;rotatable=0;labelPosition=right;points=[];portConstraint=eastwest;strokeColor=inherit;" vertex="1" parent="n8cTAwx9QXqqAEab48c7-14">
          <mxGeometry y="28.4" width="190" height="61.6" as="geometry" />
        </mxCell>
        <mxCell id="n8cTAwx9QXqqAEab48c7-17" value="Digital produkt" style="swimlane;fontStyle=1;align=center;verticalAlign=top;childLayout=stackLayout;horizontal=1;startSize=28.4;horizontalStack=0;resizeParent=1;resizeParentMax=0;resizeLast=0;collapsible=0;marginBottom=0;" vertex="1" parent="1">
          <mxGeometry x="410" y="978" width="210" height="60" as="geometry" />
        </mxCell>
        <mxCell id="n8cTAwx9QXqqAEab48c7-18" style="line;strokeWidth=1;fillColor=none;align=left;verticalAlign=middle;spacingTop=-1;spacingLeft=3;spacingRight=3;rotatable=0;labelPosition=right;points=[];portConstraint=eastwest;strokeColor=inherit;" vertex="1" parent="n8cTAwx9QXqqAEab48c7-17">
          <mxGeometry y="28.4" width="210" height="8" as="geometry" />
        </mxCell>
        <mxCell id="n8cTAwx9QXqqAEab48c7-19" value="- format: str        &#xa;" style="text;strokeColor=none;fillColor=none;align=left;verticalAlign=top;spacingLeft=4;spacingRight=4;overflow=hidden;rotatable=0;points=[[0,0.5],[1,0.5]];portConstraint=eastwest;" vertex="1" parent="n8cTAwx9QXqqAEab48c7-17">
          <mxGeometry y="36.4" width="210" height="23.6" as="geometry" />
        </mxCell>
        <mxCell id="n8cTAwx9QXqqAEab48c7-16" value="- condition: str &#xa;" style="text;strokeColor=none;fillColor=none;align=left;verticalAlign=top;spacingLeft=4;spacingRight=4;overflow=hidden;rotatable=0;points=[[0,0.5],[1,0.5]];portConstraint=eastwest;" vertex="1" parent="1">
          <mxGeometry x="150" y="1026.4" width="170" height="33.6" as="geometry" />
        </mxCell>
        <mxCell id="n8cTAwx9QXqqAEab48c7-20" style="edgeStyle=orthogonalEdgeStyle;rounded=0;orthogonalLoop=1;jettySize=auto;html=1;exitX=0.5;exitY=1;exitDx=0;exitDy=0;entryX=0.447;entryY=1;entryDx=0;entryDy=0;entryPerimeter=0;" edge="1" parent="1" source="n8cTAwx9QXqqAEab48c7-14" target="n8cTAwx9QXqqAEab48c7-16">
          <mxGeometry relative="1" as="geometry" />
        </mxCell>
      </root>
    </mxGraphModel>
  </diagram>
</mxfile>
